<?xml version="1.0" encoding="UTF-8"?>
<svg xmlns="http://www.w3.org/2000/svg" width="16" height="16" viewBox="0 0 16 16" fill="none">
  <path d="M15.6704 4.15327C15.4859 3.46793 14.9456 2.92757 14.2602 2.74306C13.0082 2.40039 7.99997 2.40039 7.99997 2.40039C7.99997 2.40039 2.99175 2.40039 1.7397 2.72988C1.06754 2.91439 0.514001 3.46793 0.329488 4.15327C0 5.40532 0 8.00168 0 8.00168C0 8.00168 0 10.6112 0.329488 11.8501C0.514001 12.5354 1.05436 13.0758 1.7397 13.2603C3.00493 13.603 7.99997 13.603 7.99997 13.603C7.99997 13.603 13.0082 13.603 14.2602 13.2735C14.9456 13.089 15.4859 12.5486 15.6704 11.8633C15.9999 10.6112 15.9999 8.01486 15.9999 8.01486C15.9999 8.01486 16.0131 5.40532 15.6704 4.15327Z" fill="white"></path>
  <path d="M6.40527 10.3999L10.57 8.00121L6.40527 5.60254V10.3999Z" fill="#1C1E27"></path>
</svg>
