<svg width="18" height="18" viewBox="0 0 18 18" fill="none" xmlns="http://www.w3.org/2000/svg">
<path fill-rule="evenodd" clip-rule="evenodd" d="M5.75986 1.47921C4.88312 0.673597 3.53549 0.673597 2.65875 1.47921C2.62284 1.5122 2.58451 1.55054 2.53474 1.60033L1.78683 2.34824C1.03423 3.10083 0.718301 4.18576 0.949187 5.22475C2.25916 11.1196 6.86294 15.7234 12.7578 17.0334C13.7968 17.2643 14.8817 16.9483 15.6343 16.1957L16.3822 15.4479C16.432 15.3981 16.4704 15.3597 16.5034 15.3238C17.309 14.4471 17.309 13.0995 16.5034 12.2227C16.4704 12.1868 16.432 12.1484 16.3822 12.0986L15.1578 10.8742C14.3077 10.0242 13.0239 9.78104 11.9219 10.2614C11.291 10.5364 10.556 10.3972 10.0693 9.91058L8.07199 7.91324C7.58532 7.42657 7.44614 6.69161 7.72115 6.06069C8.20154 4.95864 7.95841 3.67487 7.10833 2.82478L5.88388 1.60034C5.8341 1.55055 5.79577 1.5122 5.75986 1.47921ZM3.50451 2.39964C3.90303 2.03345 4.51558 2.03345 4.9141 2.39964C4.92786 2.41228 4.94589 2.43011 5.00928 2.4935L6.22444 3.70866C6.71111 4.19533 6.8503 4.93029 6.57528 5.56121C6.0949 6.66326 6.33803 7.94704 7.18811 8.79712L9.18545 10.7945C10.0355 11.6445 11.3193 11.8877 12.4214 11.4073C13.0523 11.1323 13.7872 11.2715 14.2739 11.7581L15.4891 12.9733C15.5525 13.0367 15.5703 13.0547 15.5829 13.0685C15.9491 13.467 15.9491 14.0795 15.5829 14.4781C15.5703 14.4918 15.5525 14.5099 15.4891 14.5732L14.7505 15.3119C14.3001 15.7623 13.6508 15.9513 13.029 15.8132C7.60788 14.6085 3.37411 10.3747 2.16942 4.95359C2.03125 4.3318 2.22032 3.68252 2.67071 3.23212L3.40933 2.4935C3.47272 2.43011 3.49075 2.41228 3.50451 2.39964Z" fill="white"/>
</svg>
