<svg width="20" height="20" viewBox="0 0 20 20" fill="none" xmlns="http://www.w3.org/2000/svg">
<g id="Hicon / Outline / Call">
<g id="Call">
<path id="Vector" fill-rule="evenodd" clip-rule="evenodd" d="M6.75986 2.47921C5.88312 1.6736 4.53549 1.6736 3.65875 2.47921C3.62284 2.5122 3.58451 2.55054 3.53474 2.60033L2.78683 3.34824C2.03423 4.10083 1.7183 5.18576 1.94919 6.22475C3.25916 12.1196 7.86294 16.7234 13.7578 18.0334C14.7968 18.2643 15.8817 17.9483 16.6343 17.1957L17.3822 16.4479C17.432 16.3981 17.4704 16.3597 17.5034 16.3238C18.309 15.4471 18.309 14.0995 17.5034 13.2227C17.4704 13.1868 17.432 13.1484 17.3822 13.0986L16.1578 11.8742C15.3077 11.0242 14.0239 10.781 12.9219 11.2614C12.291 11.5364 11.556 11.3972 11.0693 10.9106L9.07199 8.91324C8.58532 8.42657 8.44614 7.69161 8.72115 7.06069C9.20154 5.95864 8.95841 4.67487 8.10833 3.82478L6.88388 2.60034C6.8341 2.55055 6.79577 2.5122 6.75986 2.47921ZM4.50451 3.39964C4.90303 3.03345 5.51558 3.03345 5.9141 3.39964C5.92786 3.41228 5.94589 3.43011 6.00928 3.4935L7.22444 4.70866C7.71111 5.19533 7.8503 5.93029 7.57528 6.56121C7.0949 7.66326 7.33803 8.94704 8.18811 9.79712L10.1855 11.7945C11.0355 12.6445 12.3193 12.8877 13.4214 12.4073C14.0523 12.1323 14.7872 12.2715 15.2739 12.7581L16.4891 13.9733C16.5525 14.0367 16.5703 14.0547 16.5829 14.0685C16.9491 14.467 16.9491 15.0795 16.5829 15.4781C16.5703 15.4918 16.5525 15.5099 16.4891 15.5732L15.7505 16.3119C15.3001 16.7623 14.6508 16.9513 14.029 16.8132C8.60788 15.6085 4.37411 11.3747 3.16942 5.95359C3.03125 5.3318 3.22032 4.68252 3.67071 4.23212L4.40933 3.4935C4.47272 3.43011 4.49075 3.41228 4.50451 3.39964Z" fill="#0A4647"/>
</g>
</g>
</svg>
