<svg width="24" height="24" viewBox="0 0 24 24" fill="none" xmlns="http://www.w3.org/2000/svg">
<g id="close">
<mask id="mask0_1869_18421" style="mask-type:alpha" maskUnits="userSpaceOnUse" x="0" y="0" width="24" height="24">
<rect id="Bounding box" width="24" height="24" fill="#D9D9D9"/>
</mask>
<g mask="url(#mask0_1869_18421)">
<path id="close_2" d="M12 12.7079L6.75386 17.954C6.66028 18.0476 6.54554 18.0976 6.40964 18.104C6.27374 18.1105 6.15258 18.0605 6.04616 17.954C5.93974 17.8476 5.88654 17.7297 5.88654 17.6002C5.88654 17.4707 5.93974 17.3528 6.04616 17.2463L11.2923 12.0002L6.04616 6.75404C5.95258 6.66046 5.90258 6.54572 5.89616 6.40982C5.88974 6.27392 5.93974 6.15276 6.04616 6.04634C6.15258 5.93993 6.27053 5.88672 6.40001 5.88672C6.52949 5.88672 6.64744 5.93993 6.75386 6.04634L12 11.2925L17.2462 6.04634C17.3397 5.95276 17.4545 5.90276 17.5904 5.89634C17.7263 5.88993 17.8474 5.93993 17.9539 6.04634C18.0603 6.15276 18.1135 6.27071 18.1135 6.40019C18.1135 6.52968 18.0603 6.64763 17.9539 6.75404L12.7077 12.0002L17.9539 17.2463C18.0474 17.3399 18.0974 17.4547 18.1039 17.5906C18.1103 17.7265 18.0603 17.8476 17.9539 17.954C17.8474 18.0605 17.7295 18.1137 17.6 18.1137C17.4705 18.1137 17.3526 18.0605 17.2462 17.954L12 12.7079Z" fill="white"/>
</g>
</g>
</svg>
