<svg width="13" height="12" viewBox="0 0 13 12" fill="none" xmlns="http://www.w3.org/2000/svg">
<g id="Hicon / Bold / Down 1">
<g id="Down 1">
<path id="Vector" d="M6.875 2C6.875 1.79289 6.70711 1.625 6.5 1.625C6.29289 1.625 6.125 1.79289 6.125 2L6.125 9.51546C6.0717 9.48277 6.01255 9.44067 5.94535 9.3867C5.73859 9.22065 5.49457 8.97525 5.14 8.61751L4.26635 7.73602C4.12055 7.58892 3.88312 7.58786 3.73602 7.73365C3.58892 7.87945 3.58786 8.11688 3.73365 8.26398L4.62305 9.16135C4.95802 9.49933 5.23179 9.77557 5.47573 9.97147C5.72939 10.1752 5.98686 10.3227 6.29592 10.362C6.43143 10.3793 6.56857 10.3793 6.70408 10.362C7.01314 10.3227 7.27061 10.1752 7.52427 9.97147C7.7682 9.77557 8.04197 9.49934 8.37694 9.16135L9.26635 8.26398C9.41214 8.11688 9.41108 7.87945 9.26398 7.73365C9.11688 7.58786 8.87945 7.58892 8.73365 7.73602L7.86 8.61751C7.50543 8.97525 7.26141 9.22065 7.05465 9.3867C6.98745 9.44067 6.9283 9.48277 6.875 9.51546L6.875 2Z" fill="#D82828"/>
</g>
</g>
</svg>
