<svg width="8" height="4" viewBox="0 0 8 4" fill="none" xmlns="http://www.w3.org/2000/svg">
<path d="M7.68586 1.0186C7.88024 0.822467 7.87883 0.505888 7.6827 0.311499C7.48657 0.11711 7.16999 0.118522 6.9756 0.314654L5.81073 1.48997C5.33797 1.96696 5.01261 2.29416 4.73693 2.51556C4.46913 2.73063 4.29712 2.80441 4.14307 2.82405C4.04633 2.83638 3.94846 2.83638 3.85173 2.82405C3.69767 2.80441 3.52566 2.73063 3.25787 2.51556C2.98218 2.29416 2.65682 1.96696 2.18406 1.48997L1.01919 0.314654C0.824801 0.118523 0.508221 0.11711 0.31209 0.311499C0.115959 0.505888 0.114546 0.822468 0.308935 1.0186L1.49479 2.21509C1.94142 2.66573 2.30645 3.03405 2.6317 3.29526C2.96992 3.56688 3.31321 3.7635 3.72529 3.81602C3.90597 3.83905 4.08882 3.83905 4.2695 3.81602C4.68158 3.7635 5.02487 3.56687 5.36309 3.29526C5.68834 3.03405 6.05337 2.66574 6.5 2.21509L7.68586 1.0186Z" fill="#1C1E27"/>
</svg>
