<svg width="25" height="24" viewBox="0 0 25 24" fill="none" xmlns="http://www.w3.org/2000/svg">
<g id="picture_as_pdf">
<mask id="mask0_1111_841" style="mask-type:alpha" maskUnits="userSpaceOnUse" x="0" y="0" width="25" height="24">
<rect id="Bounding box" x="0.75" width="24" height="24" fill="#D9D9D9"/>
</mask>
<g mask="url(#mask0_1111_841)">
<path id="picture_as_pdf_2" d="M10.1731 10.3846H11.4039C11.6218 10.3846 11.8045 10.3109 11.9519 10.1635C12.0994 10.016 12.1731 9.83332 12.1731 9.61538V8.38463C12.1731 8.16668 12.0994 7.98398 11.9519 7.83655C11.8045 7.6891 11.6218 7.61538 11.4039 7.61538H9.78848C9.68591 7.61538 9.59616 7.65384 9.51923 7.73078C9.44231 7.80769 9.40385 7.89743 9.40385 8V12C9.40385 12.1026 9.44231 12.1923 9.51923 12.2692C9.59616 12.3462 9.68591 12.3846 9.78848 12.3846C9.89103 12.3846 9.98077 12.3462 10.0577 12.2692C10.1346 12.1923 10.1731 12.1026 10.1731 12V10.3846ZM10.1731 9.61538V8.38463H11.4039V9.61538H10.1731ZM15.1346 12.3846C15.3526 12.3846 15.5353 12.3109 15.6827 12.1635C15.8301 12.016 15.9038 11.8333 15.9038 11.6154V8.38463C15.9038 8.16668 15.8301 7.98398 15.6827 7.83655C15.5353 7.6891 15.3526 7.61538 15.1346 7.61538H13.5962C13.4936 7.61538 13.4038 7.65384 13.3269 7.73078C13.25 7.80769 13.2116 7.89743 13.2116 8V12C13.2116 12.1026 13.25 12.1923 13.3269 12.2692C13.4038 12.3462 13.4936 12.3846 13.5962 12.3846H15.1346ZM13.9808 11.6154V8.38463H15.1346V11.6154H13.9808ZM17.9038 10.3846H18.9038C19.0064 10.3846 19.0962 10.3462 19.1731 10.2692C19.25 10.1923 19.2885 10.1026 19.2885 10C19.2885 9.89743 19.25 9.80769 19.1731 9.73078C19.0962 9.65384 19.0064 9.61538 18.9038 9.61538H17.9038V8.38463H18.9038C19.0064 8.38463 19.0962 8.34616 19.1731 8.26922C19.25 8.19231 19.2885 8.10257 19.2885 8C19.2885 7.89743 19.25 7.80769 19.1731 7.73078C19.0962 7.65384 19.0064 7.61538 18.9038 7.61538H17.5192C17.4167 7.61538 17.3269 7.65384 17.25 7.73078C17.1731 7.80769 17.1346 7.89743 17.1346 8V12C17.1346 12.1026 17.1731 12.1923 17.25 12.2692C17.3269 12.3462 17.4167 12.3846 17.5192 12.3846C17.6218 12.3846 17.7115 12.3462 17.7885 12.2692C17.8654 12.1923 17.9038 12.1026 17.9038 12V10.3846ZM8.86538 17C8.40513 17 8.02083 16.8458 7.7125 16.5375C7.40417 16.2292 7.25 15.8449 7.25 15.3846V4.61537C7.25 4.15512 7.40417 3.77083 7.7125 3.4625C8.02083 3.15417 8.40513 3 8.86538 3H19.6346C20.0949 3 20.4792 3.15417 20.7875 3.4625C21.0958 3.77083 21.25 4.15512 21.25 4.61537V15.3846C21.25 15.8449 21.0958 16.2292 20.7875 16.5375C20.4792 16.8458 20.0949 17 19.6346 17H8.86538ZM8.86538 16H19.6346C19.7885 16 19.9295 15.9359 20.0577 15.8077C20.1859 15.6795 20.25 15.5385 20.25 15.3846V4.61537C20.25 4.46154 20.1859 4.32052 20.0577 4.1923C19.9295 4.0641 19.7885 4 19.6346 4H8.86538C8.71154 4 8.57052 4.0641 8.4423 4.1923C8.3141 4.32052 8.25 4.46154 8.25 4.61537V15.3846C8.25 15.5385 8.3141 15.6795 8.4423 15.8077C8.57052 15.9359 8.71154 16 8.86538 16ZM5.86538 20C5.40513 20 5.02083 19.8458 4.7125 19.5375C4.40417 19.2292 4.25 18.8449 4.25 18.3846V7.11538C4.25 6.97371 4.29798 6.85496 4.39393 6.75912C4.48989 6.66329 4.60881 6.61537 4.75067 6.61537C4.89252 6.61537 5.01121 6.66329 5.10672 6.75912C5.20224 6.85496 5.25 6.97371 5.25 7.11538V18.3846C5.25 18.5385 5.3141 18.6795 5.4423 18.8077C5.5705 18.9359 5.71153 19 5.86538 19H17.1346C17.2763 19 17.395 19.048 17.4909 19.1439C17.5867 19.2399 17.6346 19.3588 17.6346 19.5007C17.6346 19.6425 17.5867 19.7612 17.4909 19.8568C17.395 19.9523 17.2763 20 17.1346 20H5.86538Z" fill="white"/>
</g>
</g>
</svg>
