<svg width="13" height="12" viewBox="0 0 13 12" fill="none" xmlns="http://www.w3.org/2000/svg">
<g id="Hicon / Bold / Up 1">
<g id="Up 1">
<path id="Vector" d="M6.70408 1.63795C6.56857 1.62068 6.43143 1.62068 6.29592 1.63795C5.98686 1.67735 5.72939 1.82481 5.47573 2.02853C5.23179 2.22443 4.95802 2.50067 4.62305 2.83865L3.73365 3.73602C3.58786 3.88312 3.58892 4.12055 3.73602 4.26635C3.88312 4.41214 4.12055 4.41108 4.26635 4.26398L5.14 3.38249C5.49457 3.02475 5.73859 2.77935 5.94535 2.6133C6.01255 2.55933 6.0717 2.51723 6.125 2.48454L6.125 10C6.125 10.2071 6.29289 10.375 6.5 10.375C6.70711 10.375 6.875 10.2071 6.875 10L6.875 2.48454C6.9283 2.51723 6.98745 2.55933 7.05465 2.6133C7.26141 2.77935 7.50543 3.02475 7.86 3.38249L8.73365 4.26398C8.87945 4.41108 9.11688 4.41214 9.26398 4.26635C9.41108 4.12055 9.41214 3.88312 9.26635 3.73602L8.37695 2.83865C8.04198 2.50066 7.76821 2.22443 7.52427 2.02853C7.27061 1.82481 7.01314 1.67735 6.70408 1.63795Z" fill="#00B087"/>
</g>
</g>
</svg>
