<svg width="8" height="4" viewBox="0 0 8 4" fill="none" xmlns="http://www.w3.org/2000/svg">
<path d="M7.68848 1.0186C7.88287 0.822467 7.88146 0.505888 7.68533 0.311499C7.48919 0.11711 7.17262 0.118522 6.97823 0.314654L5.81335 1.48997C5.3406 1.96696 5.01524 2.29416 4.73955 2.51556C4.47175 2.73063 4.29974 2.80441 4.14569 2.82405C4.04896 2.83638 3.95108 2.83638 3.85435 2.82405C3.7003 2.80441 3.52829 2.73063 3.26049 2.51556C2.98481 2.29416 2.65945 1.96696 2.18669 1.48997L1.02181 0.314654C0.827425 0.118523 0.510846 0.11711 0.314715 0.311499C0.118583 0.505888 0.117171 0.822468 0.31156 1.0186L1.49742 2.21509C1.94405 2.66573 2.30908 3.03405 2.63433 3.29526C2.97254 3.56688 3.31584 3.7635 3.72791 3.81602C3.9086 3.83905 4.09144 3.83905 4.27213 3.81602C4.6842 3.7635 5.0275 3.56687 5.36571 3.29526C5.69096 3.03405 6.05599 2.66574 6.50262 2.21509L7.68848 1.0186Z" fill="white"/>
</svg>
